# xmcd
#
# Track frame offsets:
#	150
#	78875
#	96558
#	121065
#	181953
#	225682
#
# Disc length: 3305 seconds
#
# Revision: 1
# Processed by: cddbd v1.5.2PL0 Copyright (c) Steve Scherf et al.
# Submitted via: audiograbber 1.83.01
#
DISCID=410ce706
DTITLE=Grateful Dead - 77-10-11 Lloyd Noble Centre, University of Oklahoma, Nor
DTITLE=man OK
DYEAR=1900
DGENRE=
TTITLE0=Dancing In The Streets
TTITLE1=Dire Wolf
TTITLE2=The Wheel
TTITLE3=Wharf Rat
TTITLE4=Sugar Magnolia
TTITLE5=One More Saturday Night
EXTD=
EXTT0=
EXTT1=
EXTT2=
EXTT3=
EXTT4=
EXTT5=
PLAYORDER=
